<svg xmlns="http://www.w3.org/2000/svg" width="80" height="80" viewBox="0 0 80 80" fill="none">
    <path fill-rule="evenodd" clip-rule="evenodd" d="M41.7211 11.7305C41.7211 10.7748 40.9505 10 40 10C39.0495 10 38.2789 10.7748 38.2789 11.7305V19.7358C35.7146 20.3994 33.7286 22.5111 33.2344 25.1521H19.801C18.6888 25.0912 17.5504 25.5656 16.8204 26.5831L7.32768 39.8144L6.77543 40.5841C6.63962 40.7393 6.51812 40.9077 6.41383 41.0881L6.32078 41.2178L6.33691 41.2295C6.06067 41.7703 5.93554 42.4087 6.03256 43.1119C6.43663 46.0405 7.73895 48.7846 9.78274 50.9157C12.279 53.5185 15.6783 54.9929 19.2365 54.9929C22.7948 54.9929 26.194 53.5185 28.6903 50.9157C30.7341 48.7846 32.0364 46.0405 32.4405 43.1119C32.5341 42.4335 32.4209 41.8153 32.1647 41.287L32.1736 41.281L32.1248 41.2077C32.0213 41.0089 31.8973 40.8235 31.7564 40.6532L31.2174 39.8421L23.7554 28.6131H33.4617C34.1914 30.8334 36.0085 32.5561 38.2789 33.1436V61.0496H33.1155C31.2144 61.0496 29.6733 62.5992 29.6733 64.5106V67.539C29.6733 69.4505 31.2145 71 33.1155 71H47.3147C49.2158 71 50.757 69.4505 50.757 67.539V64.5106C50.757 62.5992 49.2158 61.0496 47.3147 61.0496H41.7211V33.1436C43.9915 32.5561 45.8086 30.8334 46.5383 28.6131H56.2446L48.7826 39.8421L48.2436 40.6532C48.1027 40.8235 47.9787 41.0089 47.8752 41.2077L47.8264 41.281L47.8353 41.287C47.5791 41.8153 47.4659 42.4335 47.5595 43.1119C47.9636 46.0405 49.2659 48.7846 51.3097 50.9157C53.806 53.5185 57.2052 54.9929 60.7635 54.9929C64.3217 54.9929 67.721 53.5185 70.2173 50.9157C72.261 48.7846 73.5634 46.0405 73.9674 43.1119C74.0645 42.4087 73.9393 41.7703 73.6631 41.2295L73.6792 41.2178L73.5862 41.0881C73.4819 40.9077 73.3604 40.7393 73.2246 40.5841L72.6723 39.8144L63.1796 26.5831C62.4496 25.5656 61.3112 25.0912 60.199 25.1521H46.7656C46.2714 22.5111 44.2854 20.3994 41.7211 19.7358V11.7305ZM43.4422 26.4397C43.4422 28.3512 41.9011 29.9007 40 29.9007C38.0989 29.9007 36.5578 28.3512 36.5578 26.4397C36.5578 24.5283 38.0989 22.9787 40 22.9787C41.9011 22.9787 43.4422 24.5283 43.4422 26.4397ZM33.1155 64.5106H47.3147V67.539H33.1155V64.5106ZM60.3844 28.6131L53.204 39.4185L60.7635 39.4185H68.1439L60.3916 28.6131H60.3844ZM51.0055 42.8795C51.3485 45.008 52.3174 46.9803 53.7876 48.5133C55.6488 50.4539 58.1594 51.5319 60.7635 51.5319C63.3676 51.5319 65.8782 50.4539 67.7394 48.5133C69.2096 46.9803 70.1785 45.0079 70.5215 42.8794H60.7635L51.0055 42.8795ZM26.796 39.4185L19.6156 28.6131H19.6084L11.8561 39.4185H19.2365L26.796 39.4185ZM26.2124 48.5133C27.6826 46.9803 28.6515 45.008 28.9945 42.8795L19.2365 42.8794H9.4785C9.82148 45.0079 10.7904 46.9803 12.2606 48.5133C14.1218 50.4539 16.6324 51.5319 19.2365 51.5319C21.8406 51.5319 24.3513 50.4539 26.2124 48.5133Z" fill="#080014"/>
</svg>
