<svg xmlns="http://www.w3.org/2000/svg" width="80" height="80" viewBox="0 0 80 80" fill="none">
    <path fill-rule="evenodd" clip-rule="evenodd" d="M27.9147 16C26.0193 16 24.4827 17.5598 24.4827 19.484V23.0628H14.1489C11.0161 23.0628 8.60967 25.8796 9.05271 29.0279L10.1643 44.0332C10.5241 46.5895 12.668 48.493 15.2063 48.5198V61.516C15.2063 63.4402 16.7428 65 18.6382 65H62.3618C64.2572 65 65.7937 63.4402 65.7937 61.516V48.5198C68.332 48.493 70.4759 46.5895 70.8357 44.0331L71.9473 29.0279C72.3903 25.8796 69.9839 23.0628 66.8511 23.0628H56.5172V19.484C56.5172 17.5598 54.9807 16 53.0853 16H27.9147ZM53.0853 23.0628L53.0853 19.484L27.9147 19.484V23.0628H53.0853ZM18.6382 61.516V48.5201H33.7592V50.5294C33.7592 52.4535 35.2958 54.0134 37.1912 54.0134H43.8088C45.7042 54.0134 47.2407 52.4535 47.2407 50.5294V48.5201H62.3618V61.516L18.6382 61.516ZM47.2407 45.0361H65.7395C66.5934 45.0361 67.3174 44.3986 67.4382 43.5404L68.5498 28.5352C68.6975 27.4857 67.8953 26.5468 66.8511 26.5468H14.1489C13.1047 26.5468 12.3025 27.4857 12.4502 28.5352L13.5618 43.5404C13.6825 44.3986 14.4066 45.0361 15.2605 45.0361H33.7592V43.8115C33.7592 41.8874 35.2958 40.3275 37.1912 40.3275H43.8088C45.7042 40.3275 47.2407 41.8874 47.2407 43.8115V45.0361ZM37.1912 50.5294V43.8115H43.8088L43.8088 50.5294H37.1912Z" fill="#080014"/>
</svg>
