<svg xmlns="http://www.w3.org/2000/svg" width="72" height="72" viewBox="0 0 72 72" fill="none">
    <path d="M33.7236 44.6028H33.4724C30.5779 44.6028 28.2224 42.2481 28.2224 39.3536C28.2224 38.4948 28.9194 37.7978 29.7782 37.7978C30.637 37.7978 31.334 38.4948 31.334 39.3536C31.334 40.5329 32.2931 41.4912 33.4724 41.4912H33.7236C34.9021 41.4912 35.8613 40.5329 35.8613 39.3536C35.8613 38.6659 35.4848 37.9822 34.8547 37.524C34.5295 37.2875 34.1507 37.1187 33.7579 37.0323C33.5735 36.9919 33.3892 36.9802 33.2056 36.9639C32.8034 36.9289 32.304 36.8845 31.7711 36.6947C29.7525 35.9736 28.3967 34.0507 28.3967 31.9084C28.3967 29.1064 30.6759 26.828 33.4778 26.828H33.7174C36.5194 26.828 38.7986 29.1072 38.7986 31.9084C38.7986 32.7672 38.1016 33.4642 37.2428 33.4642C36.384 33.4642 35.687 32.7672 35.687 31.9084C35.687 30.8225 34.8034 29.9396 33.7174 29.9396H33.4778C32.3919 29.9396 31.5082 30.8232 31.5082 31.9084C31.5082 32.726 32.0457 33.4891 32.8166 33.7644C32.973 33.8204 33.2063 33.8414 33.4778 33.8648C33.7579 33.8889 34.0753 33.9169 34.4206 33.9924C35.2304 34.1689 36.0122 34.5198 36.6835 35.0067C38.1172 36.0475 38.9728 37.6726 38.9728 39.3536C38.9728 42.2481 36.6182 44.6028 33.7236 44.6028Z" fill="#080014"/>
    <path d="M33.7902 47.4415C32.9314 47.4415 32.2344 46.7446 32.2344 45.8858V43.0465C32.2344 42.1877 32.9314 41.4907 33.7902 41.4907C34.6489 41.4907 35.3459 42.1877 35.3459 43.0465V45.8858C35.3459 46.7453 34.6489 47.4415 33.7902 47.4415Z" fill="#080014"/>
    <path d="M33.7819 29.9401C32.9231 29.9401 32.2261 29.2431 32.2261 28.3843V26.0071C32.2261 25.1483 32.9231 24.4513 33.7819 24.4513C34.6406 24.4513 35.3376 25.1483 35.3376 26.0071V28.3843C35.3376 29.2439 34.6406 29.9401 33.7819 29.9401Z" fill="#080014"/>
    <path d="M16.1989 30.7361C17.2729 30.7361 18.1436 29.8654 18.1436 28.7913C18.1436 27.7173 17.2729 26.8466 16.1989 26.8466C15.1248 26.8466 14.2542 27.7173 14.2542 28.7913C14.2542 29.8654 15.1248 30.7361 16.1989 30.7361Z" fill="#080014"/>
    <path d="M58.9103 35.3448C58.2343 35.3448 57.6307 34.8866 57.4393 34.1959C57.2106 33.3682 57.731 32.5032 58.5587 32.2737C58.95 32.1656 59.3428 32.1601 59.8041 32.1679C60.3891 32.1695 61.0448 32.1718 61.5963 31.9416C62.8122 31.4344 63.5037 30.525 63.7449 29.8428C63.8833 29.4523 63.8966 29.0898 63.7799 28.8751C63.3715 28.1198 63.6523 27.1754 64.4084 26.767C65.1637 26.3563 66.1081 26.6387 66.5173 27.3956C67.061 28.4006 67.1178 29.6382 66.6791 30.8805C66.0785 32.5802 64.6254 34.0496 62.7943 34.8135C61.6648 35.2849 60.5431 35.2834 59.7963 35.2803C59.6073 35.2779 59.4439 35.2717 59.3202 35.2888C59.1818 35.3262 59.0441 35.3448 58.9103 35.3448Z" fill="#080014"/>
    <path d="M65.21 32.7644C64.9914 32.7644 64.7759 32.7535 64.5659 32.7332C62.8919 32.5683 61.5352 31.7407 60.8445 30.4618C60.4361 29.7057 60.7169 28.7613 61.473 28.3529C62.2299 27.9461 63.1727 28.2269 63.5811 28.9823C63.7724 29.3362 64.2431 29.575 64.8708 29.6372C65.8891 29.7353 67.2138 29.3751 68.6132 28.6182C69.3678 28.2075 70.3129 28.4906 70.7213 29.2467C71.1297 30.0029 70.8489 30.9464 70.0928 31.3548C68.3775 32.2828 66.7035 32.7644 65.21 32.7644Z" fill="#080014"/>
    <path d="M62.2981 31.4187C61.7443 31.4187 61.2083 31.1223 60.9267 30.6011C60.9018 30.5622 60.8707 30.5116 60.8427 30.4588C60.4483 29.7291 60.3962 28.8454 60.7011 28.038C60.9812 27.2974 61.5327 26.6743 62.2538 26.2838C62.9764 25.8949 63.801 25.7735 64.5719 25.9478C65.4112 26.136 66.1191 26.6634 66.5143 27.3939C66.5392 27.4398 66.5664 27.495 66.5928 27.5502C67.0005 28.3071 66.7158 29.2468 65.9597 29.6544C65.2043 30.0612 64.2576 29.7765 63.85 29.0204C63.8438 29.0088 63.8376 28.9971 63.8321 28.9854C63.8057 28.9901 63.7722 29.001 63.7349 29.0204C63.6952 29.0422 63.6664 29.0663 63.647 29.0873C63.654 29.0998 63.661 29.1114 63.6672 29.1239C64.0748 29.8808 63.7925 30.8244 63.0356 31.232C62.8006 31.3588 62.5478 31.4187 62.2981 31.4187Z" fill="#080014"/>
    <path d="M49.823 60.1928H42.836C41.9772 60.1928 41.2803 59.4958 41.2803 58.6371V55.902C36.7242 56.9879 31.7511 57.0113 27.1483 55.958V58.6363C27.1483 59.4951 26.4513 60.1921 25.5926 60.1921H18.6048C17.746 60.1921 17.049 59.4951 17.049 58.6363V52.9981C17.049 52.0927 16.6499 51.2362 15.9825 50.708C13.1362 48.4693 10.8819 45.6782 9.46692 42.6398C9.01497 41.6721 8.15229 41.0692 7.21648 41.0692H4.50554C2.51803 41.07 0.900024 39.4528 0.900024 37.4645V31.5245C0.900024 29.5362 2.51803 27.919 4.50554 27.919H7.21648C8.15229 27.919 9.01496 27.3192 9.46847 26.3515C10.3304 24.5033 11.4957 22.7522 12.9324 21.149L9.15965 13.9808C8.90606 13.4985 8.92317 12.9189 9.20477 12.4514C9.48637 11.9847 9.99122 11.7 10.5365 11.7H14.937C18.2703 11.7 20.7704 12.6576 22.3908 14.5517C26.0087 13.0496 30.0265 12.2609 34.0918 12.2609C48.6788 12.2609 60.5462 22.2357 60.5462 34.4976C60.5462 40.6243 57.6587 46.3223 52.415 50.5423C51.767 51.0682 51.378 51.9169 51.378 52.8083V58.6363C51.3788 59.4958 50.6826 60.1928 49.823 60.1928ZM44.3918 57.0813H48.2673V52.8091C48.2673 50.9624 49.0669 49.2542 50.4601 48.1239C54.9602 44.502 57.4355 39.6651 57.4355 34.4984C57.4355 23.9525 46.9643 15.3732 34.0926 15.3732C30.0289 15.3732 26.0282 16.246 22.5222 17.8967C21.7895 18.2397 20.9143 17.9675 20.5106 17.2642C19.5616 15.6143 17.739 14.8123 14.937 14.8123H13.1129L15.7624 19.8461C16.3232 20.911 16.1482 22.2342 15.3275 23.1389C14.0604 24.5383 13.0367 26.0629 12.2868 27.6708C11.3144 29.7447 9.37201 31.0305 7.21648 31.0305H4.50554C4.23328 31.0313 4.01158 31.253 4.01158 31.5245V37.4645C4.01158 37.7367 4.23328 37.9584 4.50554 37.9584H7.21648C9.37357 37.9584 11.3167 39.2482 12.2868 41.3244C13.4979 43.9248 15.4427 46.3246 17.9101 48.2655C19.3414 49.3981 20.1606 51.1226 20.1606 52.9989V57.0813H24.0368V54.8122C24.0368 53.5917 25.0317 52.5983 26.2553 52.5983C26.4467 52.5983 26.6373 52.6224 26.8232 52.6714C31.6103 53.9596 36.8704 53.9285 41.5743 52.6131C41.7711 52.5579 41.9741 52.5298 42.1779 52.5298C43.3984 52.5298 44.3918 53.5217 44.3918 54.7414V57.0813Z" fill="#080014"/>
</svg>
