<svg width="22" height="22" viewBox="0 0 22 22" fill="none" xmlns="http://www.w3.org/2000/svg">
    <path fill-rule="evenodd" clip-rule="evenodd" d="M4.95 2.2V19.8H17.05V6.41127L12.8387 2.2H4.95ZM13.75 0L19.25 5.5V22H2.75V0H13.75Z" fill="#96929B"/>
    <path fill-rule="evenodd" clip-rule="evenodd" d="M12.362 8.32698C11.9402 8.11205 11.4735 8 11 8V6C11.7891 6 12.5669 6.18675 13.27 6.54497C13.973 6.90319 14.5813 7.42272 15.0451 8.06107C15.5089 8.69943 15.815 9.43849 15.9385 10.2178C16.0619 10.9972 15.9991 11.7947 15.7553 12.5451C15.5115 13.2955 15.0935 13.9776 14.5356 14.5355C13.9776 15.0935 13.2955 15.5115 12.5451 15.7553C11.7947 15.9991 10.9972 16.0619 10.2179 15.9384C9.43851 15.815 8.69945 15.5089 8.0611 15.0451L9.23667 13.4271C9.61968 13.7053 10.0631 13.889 10.5307 13.9631C10.9983 14.0371 11.4768 13.9995 11.9271 13.8532C12.3773 13.7069 12.7866 13.4561 13.1213 13.1213C13.4561 12.7866 13.7069 12.3773 13.8532 11.9271C13.9995 11.4768 14.0371 10.9983 13.9631 10.5307C13.889 10.0631 13.7053 9.61966 13.4271 9.23664C13.1488 8.85363 12.7838 8.54191 12.362 8.32698Z" fill="#96929B"/>
</svg>
