
<svg width="14" height="14" viewBox="0 0 14 14" fill="none" xmlns="http://www.w3.org/2000/svg">
    <path fill-rule="evenodd" clip-rule="evenodd" d="M7.00008 11.6667C9.57741 11.6667 11.6667 9.57733 11.6667 7C11.6667 4.42268 9.57741 2.33334 7.00008 2.33334C4.42275 2.33334 2.33341 4.42268 2.33341 7C2.33341 9.57733 4.42275 11.6667 7.00008 11.6667ZM7.00008 12.8333C10.2217 12.8333 12.8334 10.2217 12.8334 7C12.8334 3.77834 10.2217 1.16667 7.00008 1.16667C3.77842 1.16667 1.16675 3.77834 1.16675 7C1.16675 10.2217 3.77842 12.8333 7.00008 12.8333ZM6.38403 5.81V10.318H7.61603V5.81H6.38403ZM6.50537 4.886C6.63603 5.01667 6.80092 5.082 7.00003 5.082C7.20537 5.082 7.37026 5.01667 7.4947 4.886C7.62537 4.74911 7.6907 4.58111 7.6907 4.382C7.6907 4.18911 7.62537 4.02422 7.4947 3.88734C7.37026 3.75045 7.20537 3.682 7.00003 3.682C6.80092 3.682 6.63603 3.75045 6.50537 3.88734C6.3747 4.02422 6.30937 4.18911 6.30937 4.382C6.30937 4.58111 6.3747 4.74911 6.50537 4.886Z" fill="#393242"/>
</svg>
